<svg xmlns="http://www.w3.org/2000/svg" width="355.814" height="73.1" viewBox="0 0 355.814 73.1">
  <path id="logo" d="M368.6,170.8h3.9v.6h-1.6v4.5h-.7v-4.5h-1.6v-.6Zm8.4,0-.1.3-1.3,4.1-1.5-4.3h-.9v5h.7v-4.1l1.4,4.1h.7l1.4-4.1v4.1h.6v-5h-1ZM113.1,184c.1.1.1.3.2.4h-.8c-.2-.4,0-.9-.2-1.3,0-.2-.2-.3-.4-.3h-1.3v1.6h-.7v-3.9h1.9a1.16,1.16,0,0,1,1,.4,1.09,1.09,0,0,1,.2,1.1.664.664,0,0,1-.4.5c.1.1.3.2.3.4C113.1,183.2,113,183.6,113.1,184Zm-.8-2.7c-.1-.2-.3-.2-.5-.2h-1.2v1.1h1.1c.2,0,.4,0,.5-.2A.428.428,0,0,0,112.3,181.3Zm-33.5-53a16.445,16.445,0,0,1,.2,3.8v21.2a16.267,16.267,0,0,0,6.8,1.7,9.2,9.2,0,0,0,4.6-1.1,11.045,11.045,0,0,0,3.5-3.3,13.739,13.739,0,0,0,1.9-5.1,26.644,26.644,0,0,0,.3-6.3,23.329,23.329,0,0,0-2-9.4,16.714,16.714,0,0,0-3.1-4.4,23.8,23.8,0,0,0-4-3.1A47.488,47.488,0,0,0,76.6,118l-6.9-2.1c-4-1.1-8.1-2.2-12.2-3v67.5c5.1,1.6,10.3,3.2,15.4,4.8V128.4a4.908,4.908,0,0,1,.9-3.1,1.986,1.986,0,0,1,1.8-.7,3.1,3.1,0,0,1,1.8.9A6.164,6.164,0,0,1,78.8,128.3ZM38.6,168.4c5.3-1.9,10.6-3.8,15.9-5.6v-8.9c-6.7,2.3-13.4,4.7-20.1,7.1-1.6.6-3.3,1.1-4.9,1.8a24.344,24.344,0,0,0-5.3,2.8,4.442,4.442,0,0,0-1.7,1.9,3.339,3.339,0,0,0-.1,2.6,5.662,5.662,0,0,0,1.9,2.4,15.185,15.185,0,0,0,5,2.3,50.355,50.355,0,0,0,16.8,2.5,47.945,47.945,0,0,0,8.4-.9v-7.9c-2.3.8-4.5,1.6-6.8,2.4a21.283,21.283,0,0,1-2.7.8,18.4,18.4,0,0,1-4.1.4,11.934,11.934,0,0,1-3.7-.6c-.4-.2-.9-.4-1-.9a1.113,1.113,0,0,1,.3-1A4.112,4.112,0,0,1,38.6,168.4Zm75.7,12a3.6,3.6,0,0,1,.4,3.6,3.678,3.678,0,0,1-3.2,2,3.618,3.618,0,0,1-3-1.7,3.725,3.725,0,0,1-.2-3.1,3.576,3.576,0,0,1,2.8-2.1A3.386,3.386,0,0,1,114.3,180.4Zm0,1.3a2.979,2.979,0,0,0-1.5-1.8,3.519,3.519,0,0,0-2-.3,3.369,3.369,0,0,0-1.7,1.1,2.75,2.75,0,0,0-.5,2.3,2.937,2.937,0,0,0,1.3,1.8,3.033,3.033,0,0,0,3.3-.1A2.651,2.651,0,0,0,114.3,181.7Zm143.9-51.9c-7,.9-10.4,5.7-10.4,11.9v20.9c0,4.3-2.1,7.3-6.3,7.3H213.7a.265.265,0,0,0-.3.3v4.2c0,.2.1.3.2.3h31.6c8.2-.2,12.3-5.4,12.3-12.1V141.7c0-4.3,2-7.3,6.3-7.3h26.4a.319.319,0,0,0,.3-.3v-4.3H258.2Zm-53,0H149.1v4.3a.265.265,0,0,0,.3.3h50.2c4.3,0,6.3,3,6.3,7.3s-2,7.3-6.3,7.3H159.9c-6.2,0-10.8,5.2-10.8,12v13.3c0,.2.1.3.2.3h9.3c.1,0,.2-.2.2-.3V161c0-4.3,2.4-7.2,6-7.2h38.1c8.6,0,12.8-5.3,12.8-12.1C215.6,135.5,212.1,130.7,205.2,129.8Zm-94.7,31c-.9-.3-1.9-.7-2.8-.9a49.705,49.705,0,0,0-14.9-2.1c-1.5.1-3.1.1-4.6.3a60.682,60.682,0,0,0-12.5,2.7V170c5.6-1.9,11.1-3.9,16.7-5.8a18.529,18.529,0,0,1,5.8-.9,9.579,9.579,0,0,1,3.7.6c.4.2.9.4,1,.8.2.5-.2.9-.5,1.2a10.906,10.906,0,0,1-3.1,1.4c-7.8,2.8-15.6,5.5-23.4,8.3-.2,0-.1.2-.1.3v8.5c10.3-3.7,20.5-7.3,30.8-11a42.91,42.91,0,0,0,5-1.9,13.272,13.272,0,0,0,4.1-2.9,3.74,3.74,0,0,0,1-2.5,3.929,3.929,0,0,0-1.5-2.8A14.212,14.212,0,0,0,110.5,160.8Zm242.2-12.1H310.3a2.786,2.786,0,0,1-2.6-2.5V134.8h56.6v-5.1H298.7v19a5.567,5.567,0,0,0,5.1,5.1h46.3c2.6,0,6.1,3.7,6.4,7.6.3,4.2-3.9,8.9-6.4,8.9H298.7v5.1h54c6.4,0,12.9-5.1,12.9-13.9C365.6,152.5,357.8,148.7,352.7,148.7Z" transform="translate(-22.186 -112.9)"/>
</svg>
